<?xml version="1.0" encoding="UTF-8"?>
<svg id="Capa_2" data-name="Capa 2" xmlns="http://www.w3.org/2000/svg" viewBox="0 0 609.18 153.41">
  <defs>
    <style>
      .cls-1 {
        fill: #fff;
      }

      .cls-2 {
        fill: #bf0811;
      }
    </style>
  </defs>
  <g id="Capa_1-2" data-name="Capa 1">
    <path class="cls-1" d="M326.92,110.08h18.98l-43.5-70.26h-19.56l-47.97,70.26h16.24l11.94-17.43h53.1l10.78,17.43ZM269.21,83.64l21.73-31.72,19.62,31.72h-41.35Z"/>
    <polygon class="cls-1" points="340.19 39.82 380.03 97.97 416.01 39.82 434.99 39.82 391.49 110.08 371.93 110.08 323.96 39.82 340.19 39.82"/>
    <g>
      <polygon class="cls-2" points="12.34 92.72 59.48 92.68 112.64 17.89 124.63 35.94 71.94 110.18 24.28 110 12.34 92.72"/>
      <polygon class="cls-2" points="32.01 121.72 79.09 121.47 132.03 46.96 144.13 65.01 91.55 138.99 43.81 138.85 32.01 121.72"/>
      <polygon class="cls-2" points="53.36 153.28 57.97 146.76 96.23 146.76 144.29 78.82 153.41 78.95 100.98 153.41 53.36 153.28"/>
      <polygon class="cls-2" points="0 74.72 52.89 0 100.76 .03 47.89 74.72 0 74.72"/>
    </g>
    <polygon class="cls-1" points="514.59 48.83 514.59 39.82 511.59 39.82 461.2 39.82 452.99 39.82 444.42 39.82 444.42 110.08 444.42 110.08 514.59 110.08 514.59 110.08 514.59 103.16 514.59 101.07 461.2 101.07 461.2 79.45 503.53 79.45 503.53 70.44 461.2 70.44 461.2 48.83 514.59 48.83"/>
    <path class="cls-1" d="M582.29,79.45h.85c10.95-.11,19.79-8.94,19.79-19.82s-8.95-19.82-19.98-19.82h-54.99v70.26h16.79v-30.62h18.94l26.23,30.3h19.26l-26.9-30.3ZM548.72,70.68h-3.98v-21.86h30.15c6.04,0,10.93,4.89,10.93,10.93s-4.9,10.93-10.93,10.93h-26.17Z"/>
    <path class="cls-1" d="M210.66,39.82s-.04,38.03-.04,60.67c-.26,21.51-30.63,16.01-36.68,13.94v9.36c5.23,1.23,53.5,11.08,53.5-22.88v-61.09h-16.79Z"/>
  </g>
</svg>